<svg xmlns="http://www.w3.org/2000/svg" viewBox="0 0 64 64" width="512" height="512">
  <g stroke="#3D2B5C" stroke-width="1.4" fill="none" opacity="0.55">
    <line x1="32" y1="14" x2="47.588" y2="23"></line>
    <line x1="47.588" y1="23" x2="47.588" y2="41"></line>
    <line x1="47.588" y1="41" x2="32" y2="50"></line>
    <line x1="32" y1="50" x2="16.412" y2="41"></line>
    <line x1="16.412" y1="41" x2="16.412" y2="23"></line>
    <line x1="16.412" y1="23" x2="32" y2="14"></line>
    <line x1="32" y1="32" x2="32" y2="14"></line>
    <line x1="32" y1="32" x2="47.588" y2="23"></line>
    <line x1="32" y1="32" x2="47.588" y2="41"></line>
    <line x1="32" y1="32" x2="32" y2="50"></line>
    <line x1="32" y1="32" x2="16.412" y2="41"></line>
    <line x1="32" y1="32" x2="16.412" y2="23"></line>
  </g>
  <circle cx="32" cy="32" r="3.6" fill="#3D2B5C"></circle>
  <circle cx="47.588" cy="23" r="2.8" fill="#3D2B5C"></circle>
  <circle cx="47.588" cy="41" r="2.8" fill="#3D2B5C"></circle>
  <circle cx="32" cy="50" r="2.8" fill="#3D2B5C"></circle>
  <circle cx="16.412" cy="41" r="2.8" fill="#3D2B5C"></circle>
  <circle cx="16.412" cy="23" r="2.8" fill="#3D2B5C"></circle>
  <circle cx="32" cy="14" r="4.4" fill="#FF7A6B"></circle>
  <circle cx="51.588" cy="19.000" r="2" fill="#F4C84A"></circle>
</svg>